<svg width="16" height="16" viewBox="0 0 16 16" fill="none" xmlns="http://www.w3.org/2000/svg">
<g clip-path="url(#clip0_1475_3513)">
<path d="M11.5 8.5C12.2911 8.5 13.0645 8.26541 13.7223 7.82588C14.3801 7.38635 14.8928 6.76164 15.1955 6.03074C15.4983 5.29983 15.5775 4.49556 15.4231 3.71964C15.2688 2.94372 14.8878 2.23098 14.3284 1.67157C13.769 1.11216 13.0563 0.731202 12.2804 0.576861C11.5044 0.42252 10.7002 0.501733 9.96927 0.804484C9.23836 1.10723 8.61365 1.61992 8.17412 2.27772C7.7346 2.93552 7.5 3.70888 7.5 4.5C7.5 5.56087 7.92143 6.57828 8.67157 7.32843C9.42172 8.07857 10.4391 8.5 11.5 8.5ZM10.5 5C10.3674 5 10.2402 4.94732 10.1464 4.85356C10.0527 4.75979 10 4.63261 10 4.5V2.9C10 2.76739 10.0527 2.64022 10.1464 2.54645C10.2402 2.45268 10.3674 2.4 10.5 2.4H11.085C11.1153 2.29614 11.1785 2.20491 11.265 2.14C11.3515 2.07509 11.4568 2.04 11.565 2.04C11.6732 2.04 11.7785 2.07509 11.865 2.14C11.9515 2.20491 12.0147 2.29614 12.045 2.4H12.5C12.6326 2.4 12.7598 2.45268 12.8536 2.54645C12.9473 2.64022 13 2.76739 13 2.9C13 3.03261 12.9473 3.15979 12.8536 3.25356C12.7598 3.34732 12.6326 3.4 12.5 3.4H11V4H12.5C12.6326 4 12.7598 4.05268 12.8536 4.14645C12.9473 4.24022 13 4.36739 13 4.5V6.1C13 6.23261 12.9473 6.35979 12.8536 6.45356C12.7598 6.54732 12.6326 6.6 12.5 6.6H12.045C12.0147 6.70386 11.9515 6.79509 11.865 6.86C11.7785 6.92491 11.6732 6.96 11.565 6.96C11.4568 6.96 11.3515 6.92491 11.265 6.86C11.1785 6.79509 11.1153 6.70386 11.085 6.6H10.5C10.3674 6.6 10.2402 6.54732 10.1464 6.45356C10.0527 6.35979 10 6.23261 10 6.1C10 5.96739 10.0527 5.84022 10.1464 5.74645C10.2402 5.65268 10.3674 5.6 10.5 5.6H12V5H10.5Z" fill="#2D55FF"/>
<path d="M15.43 11.9998C15.3251 11.72 15.1226 11.4875 14.8598 11.3451C14.5971 11.2027 14.2918 11.16 14 11.2248L12 11.6348C12.0049 11.5382 12.0049 11.4415 12 11.3448C11.9949 11.147 11.9506 10.9521 11.8697 10.7714C11.7889 10.5907 11.6731 10.4278 11.529 10.2921C11.3849 10.1564 11.2154 10.0505 11.0302 9.98063C10.845 9.91073 10.6479 9.87818 10.45 9.88485C9.80031 9.9047 9.15539 9.76748 8.57003 9.48484L7.62503 9.06985C7.37129 8.96021 7.08888 8.93565 6.82003 8.99985C6.78531 9.00448 6.75156 9.0146 6.72003 9.02985L6.10003 9.30985C6.28312 9.80674 6.33142 10.3432 6.24003 10.8648L5.65003 14.0348C5.65003 14.1098 5.61003 14.1798 5.59003 14.2548L8.26503 15.2848C8.62461 15.4277 9.00812 15.5006 9.39503 15.4998C9.7909 15.4996 10.183 15.4233 10.55 15.2748L14.695 13.5948C14.9971 13.4719 15.241 13.2387 15.3775 12.9425C15.514 12.6463 15.5328 12.3093 15.43 11.9998Z" fill="#2D55FF"/>
<path d="M4.00001 8.64495L1.09001 8.20495C1.01766 8.19171 0.943279 8.19459 0.872171 8.21339C0.801063 8.2322 0.73498 8.26646 0.678632 8.31373C0.622285 8.36101 0.577061 8.42013 0.546186 8.48689C0.515311 8.55365 0.499544 8.6264 0.50001 8.69995V14.6999C0.50001 14.8326 0.552688 14.9597 0.646457 15.0535C0.740225 15.1473 0.867402 15.1999 1.00001 15.1999H3.20001C3.56379 15.1851 3.91054 15.0419 4.17874 14.7956C4.44693 14.5494 4.61921 14.2161 4.66501 13.8549L5.25501 10.6799C5.30088 10.4349 5.29754 10.1831 5.24517 9.9393C5.19281 9.69552 5.09248 9.46458 4.95001 9.25995C4.8414 9.09859 4.70123 8.96091 4.53796 8.85521C4.37468 8.74951 4.19169 8.67798 4.00001 8.64495Z" fill="#2D55FF"/>
</g>
<defs>
<clipPath id="clip0_1475_3513">
<rect width="16" height="16" fill="white"/>
</clipPath>
</defs>
</svg>
