<svg width="24" height="24" viewBox="0 0 24 24" fill="none" xmlns="http://www.w3.org/2000/svg">
<g clip-path="url(#clip0_1475_4317)">
<path d="M17.25 12.75C18.4367 12.75 19.5967 12.3981 20.5834 11.7388C21.5701 11.0795 22.3392 10.1425 22.7933 9.0461C23.2474 7.94975 23.3662 6.74335 23.1347 5.57946C22.9032 4.41558 22.3318 3.34648 21.4926 2.50736C20.6535 1.66825 19.5844 1.0968 18.4205 0.865291C17.2567 0.63378 16.0503 0.7526 14.9539 1.20673C13.8575 1.66085 12.9205 2.42989 12.2612 3.41658C11.6019 4.40328 11.25 5.56331 11.25 6.75C11.25 8.3413 11.8821 9.86743 13.0074 10.9926C14.1326 12.1179 15.6587 12.75 17.25 12.75ZM15.75 7.5C15.5511 7.5 15.3603 7.42099 15.2197 7.28033C15.079 7.13968 15 6.94892 15 6.75V4.35C15 4.15109 15.079 3.96033 15.2197 3.81967C15.3603 3.67902 15.5511 3.6 15.75 3.6H16.6275C16.6729 3.44422 16.7677 3.30737 16.8975 3.21C17.0273 3.11264 17.1852 3.06 17.3475 3.06C17.5098 3.06 17.6677 3.11264 17.7975 3.21C17.9273 3.30737 18.0221 3.44422 18.0675 3.6H18.75C18.9489 3.6 19.1397 3.67902 19.2803 3.81967C19.421 3.96033 19.5 4.15109 19.5 4.35C19.5 4.54892 19.421 4.73968 19.2803 4.88033C19.1397 5.02099 18.9489 5.1 18.75 5.1H16.5V6H18.75C18.9489 6 19.1397 6.07902 19.2803 6.21967C19.421 6.36033 19.5 6.55109 19.5 6.75V9.15C19.5 9.34892 19.421 9.53968 19.2803 9.68033C19.1397 9.82098 18.9489 9.9 18.75 9.9H18.0675C18.0221 10.0558 17.9273 10.1926 17.7975 10.29C17.6677 10.3874 17.5098 10.44 17.3475 10.44C17.1852 10.44 17.0273 10.3874 16.8975 10.29C16.7677 10.1926 16.6729 10.0558 16.6275 9.9H15.75C15.5511 9.9 15.3603 9.82098 15.2197 9.68033C15.079 9.53968 15 9.34892 15 9.15C15 8.95109 15.079 8.76033 15.2197 8.61967C15.3603 8.47902 15.5511 8.4 15.75 8.4H18V7.5H15.75Z" fill="#EDF0FF"/>
<path d="M23.145 17.9998C22.9876 17.58 22.6839 17.2313 22.2897 17.0177C21.8956 16.8041 21.4376 16.74 21 16.8373L18 17.4523C18.0074 17.3074 18.0074 17.1622 18 17.0173C17.9923 16.7205 17.9258 16.4281 17.8046 16.1571C17.6833 15.8861 17.5096 15.6417 17.2935 15.4382C17.0774 15.2346 16.8231 15.0758 16.5453 14.9709C16.2675 14.8661 15.9717 14.8173 15.675 14.8273C14.7004 14.857 13.7331 14.6512 12.855 14.2273L11.4375 13.6048C11.0569 13.4403 10.6333 13.4035 10.23 13.4998C10.1779 13.5067 10.1273 13.5219 10.08 13.5448L9.15001 13.9648C9.42465 14.7101 9.4971 15.5149 9.36001 16.2973L8.47501 21.0523C8.47501 21.1648 8.41501 21.2698 8.38501 21.3823L12.3975 22.9273C12.9369 23.1415 13.5122 23.2509 14.0925 23.2498C14.6863 23.2495 15.2745 23.1349 15.825 22.9123L22.0425 20.3923C22.4956 20.2078 22.8615 19.858 23.0663 19.4137C23.271 18.9695 23.2991 18.464 23.145 17.9998Z" fill="#EDF0FF"/>
<path d="M6.00002 12.9677L1.63502 12.3077C1.52649 12.2878 1.41492 12.2921 1.30826 12.3203C1.20159 12.3485 1.10247 12.3999 1.01795 12.4708C0.933427 12.5418 0.865592 12.6304 0.819279 12.7306C0.772966 12.8307 0.749316 12.9398 0.750015 13.0502V22.0502C0.750015 22.2491 0.829033 22.4398 0.969685 22.5805C1.11034 22.7211 1.3011 22.8002 1.50002 22.8002H4.80001C5.34568 22.7779 5.86581 22.563 6.2681 22.1937C6.67039 21.8244 6.92882 21.3244 6.99751 20.7827L7.88251 16.0202C7.95132 15.6525 7.9463 15.2749 7.86776 14.9092C7.78922 14.5435 7.63871 14.1971 7.42501 13.8902C7.2621 13.6481 7.05185 13.4416 6.80694 13.2831C6.56202 13.1245 6.28753 13.0172 6.00002 12.9677Z" fill="#EDF0FF"/>
</g>
<defs>
<clipPath id="clip0_1475_4317">
<rect width="24" height="24" fill="white"/>
</clipPath>
</defs>
</svg>
