<svg width="16" height="16" viewBox="0 0 16 16" fill="none" xmlns="http://www.w3.org/2000/svg">
<g clip-path="url(#clip0_422_643)">
<path d="M8 16C10.1217 16 12.1566 15.1571 13.6569 13.6569C15.1571 12.1566 16 10.1217 16 8C16 5.87827 15.1571 3.84344 13.6569 2.34315C12.1566 0.842855 10.1217 0 8 0C5.87827 0 3.84344 0.842855 2.34315 2.34315C0.842855 3.84344 0 5.87827 0 8C0 10.1217 0.842855 12.1566 2.34315 13.6569C3.84344 15.1571 5.87827 16 8 16ZM5.12813 10.1719C5.6875 10.8188 6.64375 11.5 8 11.5C9.35625 11.5 10.3125 10.8188 10.8719 10.1719C11.0531 9.9625 11.3687 9.94063 11.5781 10.1219C11.7875 10.3031 11.8094 10.6187 11.6281 10.8281C10.9313 11.6281 9.72188 12.5 8 12.5C6.27812 12.5 5.06875 11.6281 4.37187 10.8281C4.19062 10.6187 4.2125 10.3031 4.42188 10.1219C4.63125 9.94063 4.94688 9.9625 5.12813 10.1719ZM4.5125 6.5C4.5125 6.23478 4.61786 5.98043 4.80539 5.79289C4.99293 5.60536 5.24728 5.5 5.5125 5.5C5.77772 5.5 6.03207 5.60536 6.21961 5.79289C6.40714 5.98043 6.5125 6.23478 6.5125 6.5C6.5125 6.76522 6.40714 7.01957 6.21961 7.20711C6.03207 7.39464 5.77772 7.5 5.5125 7.5C5.24728 7.5 4.99293 7.39464 4.80539 7.20711C4.61786 7.01957 4.5125 6.76522 4.5125 6.5ZM10.5125 5.5C10.7777 5.5 11.0321 5.60536 11.2196 5.79289C11.4071 5.98043 11.5125 6.23478 11.5125 6.5C11.5125 6.76522 11.4071 7.01957 11.2196 7.20711C11.0321 7.39464 10.7777 7.5 10.5125 7.5C10.2473 7.5 9.99293 7.39464 9.80539 7.20711C9.61786 7.01957 9.5125 6.76522 9.5125 6.5C9.5125 6.23478 9.61786 5.98043 9.80539 5.79289C9.99293 5.60536 10.2473 5.5 10.5125 5.5Z" fill="#DC2626"/>
</g>
<defs>
<clipPath id="clip0_422_643">
<path d="M0 0H16V16H0V0Z" fill="white"/>
</clipPath>
</defs>
</svg>
