<svg width="16" height="16" viewBox="0 0 16 16" fill="none" xmlns="http://www.w3.org/2000/svg">
<path fill-rule="evenodd" clip-rule="evenodd" d="M5.5 4.5C5.5 3.83696 5.76339 3.20107 6.23223 2.73223C6.70107 2.26339 7.33696 2 8 2C8.66304 2 9.29893 2.26339 9.76777 2.73223C10.2366 3.20107 10.5 3.83696 10.5 4.5C10.5 5.16304 10.2366 5.79893 9.76777 6.26777C9.29893 6.73661 8.66304 7 8 7C7.33696 7 6.70107 6.73661 6.23223 6.26777C5.76339 5.79893 5.5 5.16304 5.5 4.5ZM10.5 6.5C10.5 5.96957 10.7107 5.46086 11.0858 5.08579C11.4609 4.71071 11.9696 4.5 12.5 4.5C13.0304 4.5 13.5391 4.71071 13.9142 5.08579C14.2893 5.46086 14.5 5.96957 14.5 6.5C14.5 7.03043 14.2893 7.53914 13.9142 7.91421C13.5391 8.28929 13.0304 8.5 12.5 8.5C11.9696 8.5 11.4609 8.28929 11.0858 7.91421C10.7107 7.53914 10.5 7.03043 10.5 6.5ZM1.5 6.5C1.5 5.96957 1.71071 5.46086 2.08579 5.08579C2.46086 4.71071 2.96957 4.5 3.5 4.5C4.03043 4.5 4.53914 4.71071 4.91421 5.08579C5.28929 5.46086 5.5 5.96957 5.5 6.5C5.5 7.03043 5.28929 7.53914 4.91421 7.91421C4.53914 8.28929 4.03043 8.5 3.5 8.5C2.96957 8.5 2.46086 8.28929 2.08579 7.91421C1.71071 7.53914 1.5 7.03043 1.5 6.5ZM4.20667 10.078C4.6133 9.44068 5.17405 8.91617 5.83708 8.55296C6.50011 8.18975 7.24401 7.99957 8 8C8.63321 7.99942 9.25941 8.13259 9.8376 8.39077C10.4158 8.64896 10.9329 9.02636 11.3552 9.49824C11.7774 9.97013 12.0952 10.5259 12.2878 11.1291C12.4804 11.7323 12.5434 12.3694 12.4727 12.9987C12.464 13.0768 12.4371 13.1519 12.394 13.2177C12.3509 13.2835 12.2929 13.3382 12.2247 13.3773C10.939 14.115 9.48223 14.5021 8 14.5C6.46333 14.5 5.02 14.092 3.77533 13.3773C3.70713 13.3382 3.64912 13.2835 3.60603 13.2177C3.56294 13.1519 3.53598 13.0768 3.52733 12.9987C3.41537 11.9764 3.65497 10.9465 4.20667 10.0787V10.078Z" fill="#27CA00"/>
<path d="M3.38799 9.50244C2.7305 10.5174 2.42416 11.72 2.51599 12.9258C2.11566 12.8651 1.72193 12.7669 1.33999 12.6324L1.26333 12.6058C1.19492 12.5815 1.13503 12.5379 1.09089 12.4803C1.04676 12.4227 1.02028 12.3535 1.01466 12.2811L1.00799 12.2004C0.981063 11.8658 1.02183 11.5291 1.12786 11.2105C1.23389 10.8919 1.40302 10.5979 1.62514 10.3461C1.84727 10.0943 2.11784 9.88983 2.42071 9.74488C2.72359 9.59993 3.05256 9.51748 3.38799 9.50244ZM13.484 12.9258C13.5758 11.72 13.2695 10.5174 12.612 9.50244C12.9474 9.51748 13.2764 9.59993 13.5793 9.74488C13.8821 9.88983 14.1527 10.0943 14.3748 10.3461C14.597 10.5979 14.7661 10.8919 14.8721 11.2105C14.9782 11.5291 15.0189 11.8658 14.992 12.2004L14.9853 12.2811C14.9796 12.3534 14.953 12.4224 14.9089 12.4799C14.8648 12.5374 14.805 12.5809 14.7367 12.6051L14.66 12.6318C14.282 12.7651 13.8893 12.8644 13.484 12.9258Z" fill="#27CA00"/>
</svg>
