<svg width="25" height="24" viewBox="0 0 25 24" fill="none" xmlns="http://www.w3.org/2000/svg">
<path d="M3 10.9384C3 9.71422 3.56058 8.55744 4.52142 7.79888L10.0214 3.45677C11.4747 2.30948 13.5253 2.30948 14.9786 3.45677L20.4786 7.79888C21.4394 8.55744 22 9.71422 22 10.9384V17.5C22 19.7091 20.2091 21.5 18 21.5H16.5C15.9477 21.5 15.5 21.0523 15.5 20.5V17.5C15.5 16.3954 14.6046 15.5 13.5 15.5H11.5C10.3954 15.5 9.5 16.3954 9.5 17.5V20.5C9.5 21.0523 9.05228 21.5 8.5 21.5H7C4.79086 21.5 3 19.7091 3 17.5L3 10.9384Z" stroke="#2D55FF" stroke-width="1.5"/>
</svg>
