<svg width="25" height="25" viewBox="0 0 25 25" fill="none" xmlns="http://www.w3.org/2000/svg">
<path d="M18.5 7.22583H17.04L16.554 5.76489C16.247 4.84489 15.3889 4.22583 14.4189 4.22583H10.5811C9.61105 4.22583 8.75305 4.84489 8.44604 5.76489L7.95996 7.22583H6.5C4.082 7.22583 2.75 8.55783 2.75 10.9758V18.9758C2.75 21.3938 4.082 22.7258 6.5 22.7258H18.5C20.918 22.7258 22.25 21.3938 22.25 18.9758V10.9758C22.25 8.55783 20.918 7.22583 18.5 7.22583ZM20.75 18.9758C20.75 20.5528 20.077 21.2258 18.5 21.2258H6.5C4.923 21.2258 4.25 20.5528 4.25 18.9758V10.9758C4.25 9.39883 4.923 8.72583 6.5 8.72583H8.5C8.823 8.72583 9.10891 8.51889 9.21191 8.21289L9.87012 6.23779C9.97212 5.93079 10.2581 5.72485 10.5811 5.72485H14.4189C14.7419 5.72485 15.0279 5.93079 15.1299 6.23779L15.7881 8.21191C15.8911 8.51791 16.177 8.72485 16.5 8.72485H18.5C20.077 8.72485 20.75 9.39785 20.75 10.9749V18.9758ZM12.5 11.2258C10.433 11.2258 8.75 12.9078 8.75 14.9758C8.75 17.0438 10.433 18.7258 12.5 18.7258C14.567 18.7258 16.25 17.0438 16.25 14.9758C16.25 12.9078 14.567 11.2258 12.5 11.2258ZM12.5 17.2258C11.26 17.2258 10.25 16.2168 10.25 14.9758C10.25 13.7348 11.26 12.7258 12.5 12.7258C13.74 12.7258 14.75 13.7348 14.75 14.9758C14.75 16.2168 13.74 17.2258 12.5 17.2258ZM19 11.4758C19 12.0278 18.552 12.4758 18 12.4758C17.448 12.4758 17 12.0278 17 11.4758C17 10.9238 17.448 10.4758 18 10.4758C18.552 10.4758 19 10.9238 19 11.4758Z" fill="black"/>
</svg>
