<svg width="18" height="16" viewBox="0 0 18 16" fill="none" xmlns="http://www.w3.org/2000/svg">
<path d="M6.1875 7.69559C6.1875 7.7763 6.15458 7.85371 6.09597 7.91079C6.03737 7.96787 5.95788 7.99993 5.875 7.99993C5.79212 7.99993 5.71263 7.96787 5.65403 7.91079C5.59542 7.85371 5.5625 7.7763 5.5625 7.69559C5.5625 7.61487 5.59542 7.53746 5.65403 7.48038C5.71263 7.42331 5.79212 7.39124 5.875 7.39124C5.95788 7.39124 6.03737 7.42331 6.09597 7.48038C6.15458 7.53746 6.1875 7.61487 6.1875 7.69559ZM9.3125 7.69559C9.3125 7.7763 9.27958 7.85371 9.22097 7.91079C9.16237 7.96787 9.08288 7.99993 9 7.99993C8.91712 7.99993 8.83763 7.96787 8.77903 7.91079C8.72042 7.85371 8.6875 7.7763 8.6875 7.69559C8.6875 7.61487 8.72042 7.53746 8.77903 7.48038C8.83763 7.42331 8.91712 7.39124 9 7.39124C9.08288 7.39124 9.16237 7.42331 9.22097 7.48038C9.27958 7.53746 9.3125 7.61487 9.3125 7.69559ZM12.4375 7.69559C12.4375 7.7763 12.4046 7.85371 12.346 7.91079C12.2874 7.96787 12.2079 7.99993 12.125 7.99993C12.0421 7.99993 11.9626 7.96787 11.904 7.91079C11.8454 7.85371 11.8125 7.7763 11.8125 7.69559C11.8125 7.61487 11.8454 7.53746 11.904 7.48038C11.9626 7.42331 12.0421 7.39124 12.125 7.39124C12.2079 7.39124 12.2874 7.42331 12.346 7.48038C12.4046 7.53746 12.4375 7.61487 12.4375 7.69559ZM16.5 7.69559C16.5 11.3932 13.1417 14.3912 9 14.3912C8.28099 14.392 7.56503 14.3001 6.87083 14.1177C5.8923 14.7879 4.6986 15.0925 3.50833 14.9755C3.376 14.9631 3.24422 14.9455 3.11333 14.9228C3.52406 14.4513 3.80456 13.8857 3.92833 13.2793C4.00333 12.9084 3.8175 12.5481 3.53917 12.2843C2.275 11.0864 1.5 9.47215 1.5 7.69559C1.5 3.998 4.85833 1 9 1C13.1417 1 16.5 3.998 16.5 7.69559Z" stroke="white" stroke-width="1.5" stroke-linecap="round" stroke-linejoin="round"/>
</svg>
