<svg width="24" height="24" viewBox="0 0 24 24" fill="none" xmlns="http://www.w3.org/2000/svg">
<g clip-path="url(#clip0_1475_4320)">
<path d="M1.98021 -0.0176018C2.03834 -0.0179975 2.09647 -0.0183931 2.15636 -0.0188007C2.22049 -0.0185291 2.28463 -0.018244 2.34876 -0.017947C2.41718 -0.0181427 2.4856 -0.0183994 2.55402 -0.018712C2.74186 -0.01939 2.92969 -0.0191904 3.11753 -0.0188448C3.32018 -0.0186232 3.52283 -0.0192092 3.72548 -0.0196894C4.12242 -0.0204958 4.51937 -0.0205343 4.91632 -0.0202888C5.23895 -0.0200994 5.56159 -0.0201669 5.88422 -0.0204176C5.93013 -0.0204527 5.97604 -0.0204878 6.02334 -0.0205239C6.1166 -0.0205957 6.20985 -0.0206678 6.30311 -0.0207402C7.17785 -0.0213838 8.05259 -0.0211285 8.92733 -0.0205909C9.7276 -0.0201254 10.5279 -0.0207318 11.3281 -0.0218535C12.1498 -0.0229964 12.9715 -0.0234472 13.7931 -0.0231354C14.2545 -0.0229716 14.7158 -0.0230769 15.1771 -0.0238971C15.5698 -0.0245867 15.9626 -0.0246176 16.3553 -0.0238001C16.5557 -0.0234006 16.756 -0.0233017 16.9564 -0.0240181C17.1399 -0.0246661 17.3234 -0.0244453 17.5068 -0.0235381C17.5732 -0.0233615 17.6395 -0.0234999 17.7058 -0.0239887C18.1223 -0.0268405 18.4208 -0.00727437 18.7511 0.266278C18.772 0.291596 18.7929 0.316914 18.8144 0.342999C18.8469 0.380432 18.8469 0.380432 18.88 0.418622C19.0455 0.698556 19.0445 0.99136 19.0425 1.30697C19.0426 1.37572 19.0426 1.37572 19.0428 1.44587C19.0429 1.59903 19.0424 1.75218 19.0419 1.90533C19.0419 2.0153 19.0419 2.12526 19.0419 2.23522C19.042 2.53349 19.0414 2.83175 19.0408 3.13002C19.0402 3.41022 19.0401 3.69042 19.04 3.97063C19.0398 4.52548 19.0392 5.08034 19.0383 5.63519C19.0375 6.17406 19.0368 6.71292 19.0364 7.25179C19.0364 7.28502 19.0363 7.31826 19.0363 7.35251C19.0362 7.51925 19.0361 7.686 19.036 7.85275C19.035 9.23524 19.0333 10.6177 19.0312 12.0002C18.9815 12.0026 18.9317 12.005 18.8805 12.0075C18.6934 12.0167 18.5064 12.0262 18.3194 12.0358C18.2389 12.0399 18.1584 12.0438 18.0779 12.0477C16.4695 12.1256 15.0592 12.5996 13.875 13.7346C13.8344 13.7733 13.7938 13.8119 13.7519 13.8518C13.6968 13.9098 13.6968 13.9098 13.6406 13.969C13.6145 13.9953 13.5884 14.0217 13.5615 14.0488C12.445 15.2283 12.058 16.7685 12.0791 18.3507C12.1218 19.7709 12.7586 21.1072 13.7344 22.1252C13.773 22.1658 13.8117 22.2064 13.8516 22.2483C13.9096 22.3034 13.9096 22.3034 13.9687 22.3596C13.9951 22.3857 14.0214 22.4118 14.0486 22.4387C15.1285 23.4609 16.5477 23.878 18 23.9534C18 23.9688 18 23.9843 18 24.0002C15.9291 24.0056 13.8581 24.0097 11.7872 24.0122C11.5427 24.0125 11.2982 24.0128 11.0537 24.0131C11.005 24.0132 10.9564 24.0132 10.9062 24.0133C10.1181 24.0143 9.32997 24.0162 8.54184 24.0183C7.73316 24.0205 6.92448 24.0218 6.11579 24.0223C5.61678 24.0226 5.11778 24.0236 4.61878 24.0255C4.2766 24.0268 3.93442 24.0271 3.59223 24.0268C3.39481 24.0267 3.1974 24.0269 2.99997 24.0282C2.81909 24.0293 2.63824 24.0294 2.45736 24.0286C2.39205 24.0285 2.32675 24.0288 2.26144 24.0295C1.88252 24.0335 1.56604 24.0178 1.26562 23.7659C1.04093 23.4818 0.977377 23.2422 0.97808 22.8826C0.977969 22.8445 0.977859 22.8065 0.977745 22.7673C0.977431 22.6388 0.977453 22.5102 0.977473 22.3817C0.977318 22.289 0.977143 22.1963 0.97695 22.1037C0.97648 21.8482 0.976306 21.5927 0.976182 21.3372C0.975999 21.062 0.97555 20.7867 0.975141 20.5115C0.974258 19.8779 0.97378 19.2443 0.973385 18.6107C0.973188 18.2976 0.972943 17.9846 0.972697 17.6715C0.971858 16.6001 0.971155 15.5286 0.970807 14.4572C0.970784 14.3899 0.970762 14.3226 0.97074 14.2554C0.970729 14.222 0.970717 14.1887 0.970706 14.1543C0.97065 13.9852 0.970593 13.8162 0.970535 13.6472C0.970524 13.6136 0.970513 13.5801 0.970501 13.5455C0.970131 12.4578 0.969033 11.3701 0.967509 10.2823C0.965902 9.13257 0.964978 7.9828 0.964823 6.83303C0.964804 6.70683 0.964781 6.58063 0.964756 6.45442C0.964751 6.42335 0.964745 6.39227 0.964739 6.36026C0.964636 5.891 0.964009 5.42174 0.963114 4.95248C0.962098 4.41873 0.961718 3.88498 0.962175 3.35122C0.962389 3.07881 0.962296 2.8064 0.961389 2.53398C0.960566 2.28465 0.960607 2.03533 0.961338 1.78599C0.96145 1.69574 0.961244 1.60549 0.960689 1.51524C0.959983 1.3926 0.960433 1.27001 0.961169 1.14737C0.96069 1.11229 0.96021 1.07722 0.959717 1.04109C0.963905 0.721594 1.07848 0.485824 1.2832 0.24339C1.50455 0.0589328 1.69237 -0.0173247 1.98021 -0.0176018ZM4.24804 4.38011C4.04326 4.64332 3.99497 4.87351 4.03125 5.20335C4.1322 5.52216 4.31834 5.72287 4.59375 5.90648C4.87188 5.99919 5.18618 6.00062 5.45507 5.87718C5.70812 5.73043 5.86014 5.52793 5.95312 5.25023C5.98578 4.95886 5.98347 4.70096 5.8125 4.45335C5.59895 4.2179 5.42523 4.05694 5.10571 4.02031C4.74404 4.00795 4.49177 4.10983 4.24804 4.38011ZM8.01562 4.03148C8.01562 4.68116 8.01562 5.33085 8.01562 6.00023C10.3205 6.00023 12.6253 6.00023 15 6.00023C15 5.35054 15 4.70085 15 4.03148C12.6952 4.03148 10.3903 4.03148 8.01562 4.03148ZM8.01562 9.00023C8.01562 9.64991 8.01562 10.2996 8.01562 10.969C9.65531 10.969 11.295 10.969 12.9844 10.969C12.9844 10.3193 12.9844 9.6696 12.9844 9.00023C11.3447 9.00023 9.705 9.00023 8.01562 9.00023ZM4.13671 9.51878C4.00236 9.72702 4.00358 9.9791 4.03125 10.219C4.13274 10.5559 4.36009 10.7671 4.6582 10.9397C4.9755 11.0152 5.24336 10.9889 5.53125 10.8284C5.74746 10.6367 5.93497 10.45 5.96429 10.1525C5.97338 9.81336 5.93569 9.55787 5.69879 9.30345C5.43686 9.07062 5.19788 9.0281 4.8587 9.03538C4.52701 9.06665 4.34208 9.27674 4.13671 9.51878ZM4.24218 14.3645C4.03497 14.6419 3.98939 14.8914 4.03125 15.2346C4.1246 15.5401 4.30443 15.7357 4.58496 15.891C4.83972 16.0056 5.07428 16.0035 5.34375 15.9377C5.61228 15.8035 5.85687 15.5702 5.95312 15.2815C5.98433 14.9316 5.98519 14.6723 5.76562 14.3909C5.54581 14.1615 5.34652 14.0418 5.02734 13.9983C4.72283 14.0334 4.44926 14.132 4.24218 14.3645ZM8.01562 14.0159C8.01562 14.6655 8.01562 15.3152 8.01562 15.9846C8.99015 15.9846 9.96468 15.9846 10.9687 15.9846C10.9687 15.3349 10.9687 14.6852 10.9687 14.0159C9.99422 14.0159 9.01968 14.0159 8.01562 14.0159Z" fill="white"/>
<path d="M20.9062 13.8752C20.9448 13.9035 20.9834 13.9317 21.0232 13.9609C21.4924 14.321 21.9059 14.7311 22.2187 15.2345C22.2495 15.2831 22.2803 15.3317 22.3121 15.3818C23.0177 16.5479 23.214 17.9482 22.8935 19.2739C22.7349 19.856 22.4827 20.4196 22.125 20.9064C22.0967 20.945 22.0684 20.9836 22.0393 21.0234C21.6791 21.4926 21.269 21.9061 20.7656 22.2189C20.717 22.2497 20.6684 22.2806 20.6184 22.3123C19.4522 23.0179 18.052 23.2142 16.7263 22.8937C16.1441 22.7351 15.5805 22.4829 15.0937 22.1252C15.0551 22.0969 15.0165 22.0686 14.9767 22.0395C14.5075 21.6793 14.094 21.2692 13.7812 20.7658C13.7504 20.7172 13.7196 20.6686 13.6878 20.6186C12.9823 19.4524 12.7859 18.0522 13.1065 16.7265C13.265 16.1443 13.5172 15.5807 13.875 15.0939C13.9032 15.0553 13.9315 15.0167 13.9607 14.9769C14.3208 14.5077 14.7309 14.0942 15.2343 13.7814C15.2829 13.7506 15.3315 13.7198 15.3816 13.688C17.0594 12.6729 19.3081 12.7006 20.9062 13.8752ZM20.1189 15.4965C20.0623 15.5536 20.0059 15.611 19.9497 15.6685C19.9189 15.6997 19.8881 15.7308 19.8564 15.763C19.7893 15.8308 19.7223 15.8988 19.6555 15.9669C19.5497 16.0745 19.4437 16.1817 19.3375 16.2888C19.0356 16.5935 18.7341 16.8986 18.4333 17.2044C18.2495 17.3912 18.0652 17.5774 17.8804 17.7633C17.81 17.8344 17.7397 17.9058 17.6697 17.9773C17.572 18.0772 17.4735 18.1764 17.3749 18.2754C17.3459 18.3054 17.3169 18.3353 17.287 18.3662C17.2054 18.4473 17.2054 18.4473 17.0625 18.5627C16.8529 18.5424 16.74 18.3987 16.6003 18.2549C16.5746 18.2289 16.5488 18.203 16.5223 18.1763C16.4403 18.0935 16.3588 18.0102 16.2773 17.9269C16.2217 17.8707 16.1661 17.8144 16.1105 17.7582C15.9743 17.6205 15.8386 17.4823 15.7031 17.3439C15.3959 17.5964 15.1184 17.8764 14.8388 18.1584C14.7907 18.2068 14.7425 18.2552 14.6943 18.3036C14.5773 18.4211 14.4605 18.5387 14.3437 18.6564C14.5642 18.9207 14.7986 19.1671 15.0408 19.4115C15.0802 19.4513 15.1196 19.4911 15.1602 19.5321C15.2431 19.6157 15.3261 19.6992 15.4092 19.7826C15.4939 19.8679 15.5784 19.9534 15.6627 20.039C15.785 20.1633 15.908 20.287 16.031 20.4106C16.0684 20.4488 16.1059 20.487 16.1444 20.5264C16.375 20.7561 16.5648 20.9175 16.894 20.972C17.7146 20.9628 18.3092 20.0879 18.8455 19.5498C18.9268 19.4684 19.0081 19.387 19.0895 19.3057C19.3021 19.0929 19.5146 18.8799 19.7271 18.6669C19.9444 18.4491 20.1619 18.2314 20.3794 18.0136C20.8052 17.5874 21.2307 17.161 21.6562 16.7345C21.612 16.6826 21.5677 16.6306 21.5234 16.5787C21.4988 16.5498 21.4741 16.5209 21.4487 16.4911C21.2813 16.2989 21.0984 16.1212 20.9183 15.9411C20.8469 15.8695 20.7758 15.7976 20.7048 15.7257C20.6594 15.6802 20.614 15.6347 20.5686 15.5892C20.5276 15.5481 20.4867 15.507 20.4446 15.4646C20.2884 15.3261 20.2736 15.3533 20.1189 15.4965Z" fill="white"/>
</g>
<defs>
<clipPath id="clip0_1475_4320">
<rect width="24" height="24" fill="white"/>
</clipPath>
</defs>
</svg>
