<svg width="18" height="18" viewBox="0 0 18 18" fill="none" xmlns="http://www.w3.org/2000/svg">
<path d="M8.82917 16.9251L8.82333 16.9226L8.805 16.9126C8.69774 16.8535 8.59134 16.793 8.48583 16.7309C7.21734 15.9771 6.0319 15.0917 4.94917 14.0892C3.03167 12.3001 1 9.64506 1 6.37506C1 3.93506 3.05333 2.00006 5.53167 2.00006C6.22063 1.99668 6.90148 2.14868 7.5236 2.44473C8.14572 2.74078 8.69309 3.17328 9.125 3.71006C9.557 3.17317 10.1045 2.74061 10.7268 2.44455C11.349 2.14849 12.0301 1.99656 12.7192 2.00006C15.1967 2.00006 17.25 3.93506 17.25 6.37506C17.25 9.64589 15.2183 12.3009 13.3008 14.0884C12.2181 15.0909 11.0327 15.9763 9.76417 16.7301C9.65866 16.7924 9.55226 16.8533 9.445 16.9126L9.42667 16.9226L9.42083 16.9259L9.41833 16.9267C9.32797 16.9746 9.22726 16.9996 9.125 16.9996C9.02274 16.9996 8.92203 16.9746 8.83167 16.9267L8.82917 16.9251Z" fill="#6A6A6A"/>
</svg>
