<svg width="19" height="19" viewBox="0 0 19 19" fill="none" xmlns="http://www.w3.org/2000/svg">
<path d="M11.6543 17.7332C11.6865 17.8136 11.7427 17.8823 11.8151 17.93C11.8876 17.9776 11.9729 18.002 12.0595 17.9997C12.1462 17.9975 12.2302 17.9688 12.3001 17.9175C12.37 17.8662 12.4225 17.7948 12.4507 17.7128L17.9753 1.56381C18.0025 1.4885 18.0077 1.407 17.9903 1.32885C17.9728 1.25069 17.9335 1.17912 17.8769 1.1225C17.8203 1.06588 17.7487 1.02656 17.6705 1.00913C17.5924 0.991702 17.5109 0.996893 17.4356 1.02409L1.28663 6.54874C1.2046 6.57687 1.13315 6.62941 1.08185 6.69932C1.03055 6.76923 1.00187 6.85316 0.999651 6.93985C0.997431 7.02653 1.02178 7.11182 1.06943 7.18426C1.11708 7.25671 1.18575 7.31284 1.26623 7.34513L8.00629 10.048C8.21936 10.1333 8.41295 10.2608 8.57539 10.423C8.73782 10.5851 8.86574 10.7785 8.95143 10.9914L11.6543 17.7332Z" stroke="white" stroke-width="1.5" stroke-linecap="round" stroke-linejoin="round"/>
<path d="M17.8753 1.12402L8.5769 10.4225" stroke="white" stroke-width="1.5" stroke-linecap="round" stroke-linejoin="round"/>
</svg>
