<svg width="20" height="16" viewBox="0 0 20 16" fill="none" xmlns="http://www.w3.org/2000/svg">
<g clip-path="url(#clip0_422_633)">
<path d="M7 8C8.06087 8 9.07828 7.57857 9.82843 6.82843C10.5786 6.07828 11 5.06087 11 4C11 2.93913 10.5786 1.92172 9.82843 1.17157C9.07828 0.421427 8.06087 0 7 0C5.93913 0 4.92172 0.421427 4.17157 1.17157C3.42143 1.92172 3 2.93913 3 4C3 5.06087 3.42143 6.07828 4.17157 6.82843C4.92172 7.57857 5.93913 8 7 8ZM5.57188 9.5C2.49375 9.5 0 11.9937 0 15.0719C0 15.5844 0.415625 16 0.928125 16H13.0719C13.3844 16 13.6594 15.8469 13.8281 15.6094L10.7281 12.5094C10.2625 12.0437 10 11.4125 10 10.7563V9.725C9.50313 9.57812 8.975 9.5 8.42813 9.5H5.57188ZM12 7C11.4469 7 11 7.44688 11 8V10.5844C11 11.1156 11.2094 11.625 11.5844 12L14.9406 15.3531C15.525 15.9375 16.475 15.9375 17.0625 15.3531L19.3563 13.0594C19.9406 12.475 19.9406 11.525 19.3563 10.9375L16 7.58437C15.625 7.20937 15.1156 7 14.5844 7H12ZM12.75 9.5C12.75 9.30109 12.829 9.11032 12.9697 8.96967C13.1103 8.82902 13.3011 8.75 13.5 8.75C13.6989 8.75 13.8897 8.82902 14.0303 8.96967C14.171 9.11032 14.25 9.30109 14.25 9.5C14.25 9.69891 14.171 9.88968 14.0303 10.0303C13.8897 10.171 13.6989 10.25 13.5 10.25C13.3011 10.25 13.1103 10.171 12.9697 10.0303C12.829 9.88968 12.75 9.69891 12.75 9.5Z" fill="#2563EB"/>
</g>
<defs>
<clipPath id="clip0_422_633">
<path d="M0 0H20V16H0V0Z" fill="white"/>
</clipPath>
</defs>
</svg>
