<svg width="14" height="17" viewBox="0 0 14 17" fill="none" xmlns="http://www.w3.org/2000/svg">
<path d="M7.23375 15.463C10.0938 14.4481 12.5 12.6984 12.5 9.19902V4.29985C12.5 4.11422 12.4276 3.93621 12.2986 3.80495C12.1697 3.6737 11.9948 3.59996 11.8125 3.59996C10.4375 3.59996 8.72563 2.7671 7.5225 1.69628C7.37685 1.5696 7.19157 1.5 7 1.5C6.80843 1.5 6.62315 1.5696 6.4775 1.69628C5.28125 2.7601 3.5625 3.59996 2.1875 3.59996C2.00516 3.59996 1.8303 3.6737 1.70136 3.80495C1.57243 3.93621 1.5 4.11422 1.5 4.29985V9.19902C1.5 12.6984 3.90625 14.4481 6.77312 15.456C6.92131 15.5122 7.08399 15.5146 7.23375 15.463Z" fill="#2D55FF"/>
<path d="M4.5 8.5L6.5 10.5L9.5 7.5" stroke="white" stroke-linecap="round" stroke-linejoin="round"/>
</svg>
